# Blender 5.1.1
# www.blender.org
mtllib Cartão.mtl
o Cartao
v 0.070000 3.886319 -1.610000
v 0.070000 2.124058 -1.610000
v 0.070000 3.886319 1.610000
v 0.070000 2.124059 1.610000
v -0.070000 3.886319 -1.610000
v -0.070000 2.124058 -1.610000
v -0.070000 3.886319 1.610000
v -0.070000 2.124059 1.610000
v -0.070000 2.005188 -1.398158
v 0.070000 4.005188 -1.398158
v -0.070000 4.005188 -1.398158
v 0.070000 2.005188 -1.398158
v -0.070000 2.005189 1.397560
v 0.070000 4.005189 1.397559
v -0.070000 4.005189 1.397559
v 0.070000 2.005189 1.397560
vn -0.0000 0.8727 0.4883
vn -0.0000 -0.0000 1.0000
vn -0.0000 -0.8727 0.4883
vn -0.0000 -0.0000 -1.0000
vn -0.0000 -0.8721 -0.4894
vn -0.0000 0.8721 -0.4893
vn -0.0000 -1.0000 -0.0000
vn -0.0000 1.0000 -0.0000
vn 1.0000 -0.0000 -0.0000
vn -1.0000 -0.0000 -0.0000
vt 0.333500 0.333167
vt 0.333500 0.000167
vt 0.353292 0.000167
vt 0.353292 0.333167
vt 0.646708 0.333167
vt 0.646708 0.000167
vt 0.666500 0.000167
vt 0.666500 0.333167
vt 0.000167 0.196862
vt 0.000167 0.000167
vt 0.333167 0.000167
vt 0.333167 0.196862
vt 0.333167 0.226386
vt 0.000167 0.226386
vt 0.910896 0.333500
vt 0.910896 0.666500
vt 0.881372 0.666500
vt 0.881372 0.333500
vt 0.333167 0.440925
vt 0.000167 0.440925
vt 0.666833 0.666500
vt 0.666833 0.333500
vt 0.313375 0.774258
vt 0.019959 0.774258
vt 0.000167 0.752350
vt 0.000167 0.463228
vt 0.019959 0.441258
vt 0.313375 0.441258
vt 0.333167 0.463228
vt 0.333167 0.752350
vt 0.999833 0.311197
vt 0.980041 0.333167
vt 0.686625 0.333167
vt 0.666833 0.311197
vt 0.666833 0.022075
vt 0.686625 0.000167
vt 0.980041 0.000167
vt 0.999833 0.022075
s 1
usemtl Material.001
f 14/1/1 15/2/1 7/3/1 3/4/1
f 4/5/2 3/4/2 7/3/2 8/6/2
f 13/7/3 16/8/3 4/5/3 8/6/3
f 6/9/4 5/10/4 1/11/4 2/12/4
f 6/9/5 2/12/5 12/13/5 9/14/5
f 1/15/6 5/16/6 11/17/6 10/18/6
f 9/14/7 12/13/7 16/19/7 13/20/7
f 10/18/8 11/17/8 15/21/8 14/22/8
f 2/23/9 1/24/9 10/25/9 14/26/9 3/27/9 4/28/9 16/29/9 12/30/9
f 13/31/10 8/32/10 7/33/10 15/34/10 11/35/10 5/36/10 6/37/10 9/38/10
