# Blender 5.1.1
# www.blender.org
mtllib Fusível.mtl
o Cylinder
v 0.000000 1.199246 -0.103615
v 0.000000 1.587362 -0.103615
v 0.083233 1.587362 -0.051808
v 0.083233 1.199246 -0.051808
v 0.083233 1.587362 0.051808
v 0.083233 1.199246 0.051808
v 0.000000 1.587362 0.103615
v 0.000000 1.199246 0.103615
v -0.083233 1.587362 0.051808
v -0.083233 1.199246 0.051808
v -0.083233 1.587362 -0.051808
v -0.083233 1.199246 -0.051808
v -0.000000 1.049663 -0.115247
v 0.092576 1.049663 -0.057624
v 0.095045 1.736945 -0.059160
v -0.000000 1.736945 -0.118321
v 0.000000 1.615688 -0.118739
v 0.095381 1.170920 -0.059370
v 0.092576 1.049663 0.057624
v 0.095045 1.736945 0.059160
v 0.095381 1.170920 0.059370
v -0.000000 1.049663 0.115247
v -0.000000 1.736945 0.118320
v 0.000000 1.170920 0.118739
v -0.092576 1.049663 0.057624
v -0.095045 1.736945 0.059160
v -0.095381 1.170920 0.059370
v -0.092576 1.049663 -0.057624
v -0.095045 1.736945 -0.059160
v -0.095381 1.170920 -0.059370
v 0.000000 1.170920 -0.118739
v 0.095381 1.615688 -0.059370
v 0.095381 1.615688 0.059370
v 0.000000 1.615688 0.118739
v -0.095381 1.615688 0.059370
v -0.095381 1.615688 -0.059370
v 0.095470 1.790584 0.059425
v 0.114742 1.731909 0.071420
v 0.114742 1.731909 -0.071420
v 0.095470 1.790584 -0.059425
v -0.095470 1.790584 0.059425
v -0.114742 1.731909 0.071420
v -0.000000 1.731909 0.142841
v 0.000000 1.790584 0.118850
v 0.000000 1.790584 -0.118850
v -0.000000 1.731909 -0.142841
v -0.114742 1.731909 -0.071420
v -0.095470 1.790584 -0.059425
v -0.105813 1.009838 -0.070435
v -0.105245 0.999032 -0.065509
v -0.109486 1.009838 -0.063577
v -0.003673 1.009838 -0.134012
v 0.003673 1.009838 -0.134012
v -0.000000 0.999032 -0.131019
v -0.109486 1.009838 0.063577
v -0.105245 0.999032 0.065509
v -0.105813 1.009838 0.070435
v -0.003673 1.009838 0.134012
v -0.000000 0.999032 0.131019
v 0.003673 1.009838 0.134012
v 0.105813 1.009838 0.070435
v 0.105245 0.999032 0.065509
v 0.109486 1.009838 0.063577
v 0.109486 1.009838 -0.063577
v 0.105245 0.999032 -0.065509
v 0.105813 1.009838 -0.070435
v 0.003673 1.043093 -0.134012
v -0.003673 1.043093 -0.134012
v -0.000000 1.052842 -0.131044
v 0.105813 1.043094 -0.070435
v 0.105266 1.052842 -0.065522
v 0.109486 1.043094 -0.063577
v 0.109486 1.043094 0.063577
v 0.105266 1.052842 0.065522
v 0.105813 1.043094 0.070435
v 0.003673 1.043094 0.134012
v -0.000000 1.052842 0.131044
v -0.003673 1.043094 0.134012
v -0.105813 1.043094 0.070435
v -0.105266 1.052842 0.065522
v -0.109486 1.043094 0.063577
v -0.109486 1.043094 -0.063577
v -0.105266 1.052842 -0.065522
v -0.105813 1.043094 -0.070435
v 0.000000 1.790584 -0.142841
v -0.114742 1.790584 -0.071420
v -0.114742 1.790584 0.071420
v 0.000000 1.790584 0.142841
v 0.114742 1.790584 0.071420
v 0.114742 1.790584 -0.071420
v 0.000000 1.773101 -0.118850
v -0.095470 1.773101 -0.059425
v -0.095470 1.773101 0.059425
v 0.000000 1.773101 0.118850
v 0.095470 1.773101 0.059425
v 0.095470 1.773101 -0.059425
vn -0.0000 -0.5951 -0.8036
vn -0.7225 -0.5730 -0.3869
vn -0.8375 -0.3121 -0.4485
vn -0.0000 -0.3286 -0.9445
vn -0.0000 -0.2380 0.9713
vn 0.8589 -0.2254 0.4599
vn 0.8696 -0.1643 0.4657
vn -0.0000 -0.1738 0.9848
vn -0.8589 0.2254 -0.4599
vn -0.0000 0.2380 -0.9713
vn -0.0000 0.1601 -0.9871
vn -0.8714 0.1514 -0.4666
vn 0.8589 0.2254 -0.4599
vn 0.8714 0.1514 -0.4666
vn -0.8589 -0.2254 -0.4599
vn -0.8589 -0.2254 0.4599
vn -0.8696 -0.1643 0.4657
vn -0.8696 -0.1643 -0.4657
vn 0.8589 0.2254 0.4599
vn -0.0000 0.2380 0.9713
vn -0.0000 0.1601 0.9871
vn 0.8714 0.1514 0.4666
vn 0.8589 -0.2254 -0.4599
vn 0.8696 -0.1643 -0.4657
vn -0.8589 0.2254 0.4599
vn -0.8714 0.1514 0.4666
vn -0.0000 -0.2380 -0.9713
vn -0.0000 -0.1738 -0.9848
vn 0.7225 -0.5730 -0.3869
vn 0.7225 -0.5730 0.3869
vn -0.0000 -0.5951 0.8036
vn -0.7225 -0.5730 0.3869
vn 0.8375 -0.3121 0.4485
vn -0.0000 -0.3286 0.9445
vn -0.7370 0.5487 -0.3947
vn -0.0000 0.5707 -0.8211
vn -0.7370 0.5487 0.3947
vn -0.0000 0.5707 0.8211
vn 0.7370 0.5487 0.3947
vn 0.7370 0.5487 -0.3947
vn 0.8375 -0.3121 -0.4485
vn -0.8375 -0.3121 0.4485
vn -0.0000 0.3097 0.9508
vn -0.8426 0.2939 0.4512
vn -0.7509 0.5239 -0.4021
vn -0.7509 0.5239 0.4021
vn -0.8426 0.2939 -0.4512
vn -0.0000 0.3097 -0.9508
vn 0.8426 0.2939 -0.4512
vn 0.8426 0.2939 0.4512
vn -0.7070 -0.1458 -0.6920
vn -0.7219 -0.5739 -0.3866
vn -0.9665 -0.1410 -0.2146
vn -0.3015 -0.1502 -0.9416
vn 0.3015 -0.1502 -0.9416
vn -0.0000 -0.5960 -0.8030
vn -0.9665 -0.1410 0.2146
vn -0.7219 -0.5739 0.3866
vn -0.7070 -0.1458 0.6920
vn -0.3015 -0.1502 0.9416
vn -0.0000 -0.5960 0.8030
vn 0.3015 -0.1502 0.9416
vn 0.7070 -0.1458 0.6920
vn 0.7219 -0.5739 0.3866
vn 0.9665 -0.1410 0.2146
vn 0.9665 -0.1410 -0.2146
vn 0.7219 -0.5739 -0.3866
vn 0.7070 -0.1458 -0.6920
vn 0.3014 0.1605 -0.9399
vn -0.3014 0.1605 -0.9399
vn -0.0000 0.6460 -0.7634
vn 0.7056 0.1558 -0.6912
vn 0.6887 0.6242 -0.3688
vn 0.9652 0.1507 -0.2139
vn 0.9652 0.1507 0.2139
vn 0.6887 0.6242 0.3688
vn 0.7056 0.1558 0.6912
vn 0.3014 0.1605 0.9399
vn -0.0000 0.6460 0.7634
vn -0.3014 0.1605 0.9399
vn -0.7056 0.1558 0.6912
vn -0.6887 0.6242 0.3688
vn -0.9652 0.1507 0.2139
vn -0.9652 0.1507 -0.2139
vn -0.6887 0.6242 -0.3688
vn -0.7056 0.1558 -0.6912
vn 0.7509 0.5239 0.4021
vn -0.0000 0.5458 0.8379
vn 0.7509 0.5239 -0.4021
vn -0.0000 0.5458 -0.8379
vt -0.000000 1.000000
vt 0.166667 1.000000
vt 0.500000 0.833333
vt 0.666667 0.833333
vt 0.166667 0.666667
vt -0.000000 0.666667
vt 1.000000 0.666667
vt 0.833333 0.666667
vt 0.166667 0.833333
vt 0.333333 0.833333
vt 0.666667 0.666667
vt 0.500000 0.666667
vt 0.833333 0.833333
vt 0.333333 0.666667
vt -0.000000 0.833333
vt 1.000000 0.833333
vt 1.000000 1.000000
vt 0.833333 1.000000
vt 0.666667 1.000000
vt 0.500000 1.000000
vt 0.333333 1.000000
vt 0.166667 0.500000
vt -0.000000 0.500000
vt 0.333333 0.500000
vt 0.500000 0.500000
vt 0.666667 0.500000
vt 0.833333 0.500000
vt 1.000000 0.500000
vt 0.422937 0.150155
vt 0.422937 0.349845
vt 0.549126 0.374025
vt 0.550204 0.365352
vt 0.542154 0.361950
vt 0.743028 0.485975
vt 0.756972 0.485975
vt 0.750000 0.480704
vt 0.542154 0.138050
vt 0.550204 0.134648
vt 0.549126 0.125975
vt 0.743028 0.014025
vt 0.750000 0.019296
vt 0.756972 0.014025
vt 0.950874 0.125975
vt 0.949796 0.134648
vt 0.957846 0.138050
vt 0.957846 0.361950
vt 0.949796 0.365352
vt 0.950874 0.374025
vt 0.005590 0.500000
vt 0.001071 0.500000
vt 0.838924 0.500000
vt 0.827743 0.500000
vt 0.672257 0.500000
vt 0.661076 0.500000
vt 0.505590 0.500000
vt 0.500000 0.500000
vt 0.494409 0.500000
vt 0.338924 0.500000
vt 0.327743 0.500000
vt 0.172257 0.500000
vt 0.161076 0.500000
vt 0.994410 0.500000
vt 0.827743 0.500000
vt 0.838924 0.500000
vt 0.005590 0.500000
vt 0.494409 0.500000
vt 0.505590 0.500000
vt 0.661076 0.500000
vt 0.172257 0.500000
vt 0.161076 0.500000
vt 0.327743 0.500000
vt 0.338924 0.500000
vt 0.994409 0.500000
vt 0.077063 0.349845
vt 0.250000 0.449690
vt 0.250000 0.490000
vt 0.042154 0.370000
vt 0.077063 0.150155
vt 0.042154 0.130000
vt 0.250000 0.050310
vt 0.250000 0.010000
vt 0.457846 0.130000
vt 0.457846 0.370000
s 1
usemtl Material.003
f 12/5/9 11/9/15 2/15/27 1/6/10
f 10/14/25 9/10/16 11/9/15 12/5/9
f 8/12/20 7/3/5 9/10/16 10/14/25
f 6/11/19 5/4/6 7/3/5 8/12/20
f 4/8/13 3/13/23 5/4/6 6/11/19
f 1/7/10 2/16/27 3/13/23 4/8/13
usemtl Material.004
f 16/1/1 29/2/2 47/2/3 46/1/4
f 7/3/5 5/4/6 33/4/7 34/3/8
f 12/5/9 1/6/10 31/6/11 30/5/12
f 1/7/10 4/8/13 18/8/14 31/7/11
f 11/9/15 9/10/16 35/10/17 36/9/18
f 6/11/19 8/12/20 24/12/21 21/11/22
f 5/4/6 3/13/23 32/13/24 33/4/7
f 10/14/25 12/5/9 30/5/12 27/14/26
f 9/10/16 7/3/5 34/3/8 35/10/17
f 4/8/13 6/11/19 21/11/22 18/8/14
f 2/15/27 11/9/15 36/9/18 17/15/28
f 3/13/23 2/16/27 17/16/28 32/13/24
f 8/12/20 10/14/25 27/14/26 24/12/21
f 17/16/28 16/17/1 15/18/29 32/13/24
f 32/13/24 15/18/29 20/19/30 33/4/7
f 33/4/7 20/19/30 23/20/31 34/3/8
f 34/3/8 23/20/31 26/21/32 35/10/17
f 23/20/31 20/19/30 38/19/33 43/20/34
f 35/10/17 26/21/32 29/2/2 36/9/18
f 36/9/18 29/2/2 16/1/1 17/15/28
f 28/22/35 30/5/12 31/6/11 13/23/36
f 25/24/37 27/14/26 30/5/12 28/22/35
f 22/25/38 24/12/21 27/14/26 25/24/37
f 19/26/39 21/11/22 24/12/21 22/25/38
f 14/27/40 18/8/14 21/11/22 19/26/39
f 13/28/36 31/7/11 18/8/14 14/27/40
f 15/18/29 16/17/1 46/17/4 39/18/41
f 29/2/2 26/21/32 42/21/42 47/2/3
f 20/19/30 15/18/29 39/18/41 38/19/33
f 26/21/32 23/20/31 43/20/34 42/21/42
f 42/21/42 43/20/34 88/20/43 87/21/44
f 37/29/45 40/30/46 96/30/44 95/29/47
f 46/1/4 47/2/3 86/2/47 85/1/48
f 38/19/33 39/18/41 90/18/49 89/19/50
f 47/2/3 42/21/42 87/21/44 86/2/47
f 39/18/41 46/17/4 85/17/48 90/18/49
f 43/20/34 38/19/33 89/19/50 88/20/43
f 49/31/51 50/32/52 51/33/53
f 52/34/54 53/35/55 54/36/56
f 55/37/57 56/38/58 57/39/59
f 58/40/60 59/41/61 60/42/62
f 61/43/63 62/44/64 63/45/65
f 64/46/66 65/47/67 66/48/68
f 67/23/69 68/49/70 69/50/71
f 70/51/72 71/27/73 72/52/74
f 73/53/75 74/26/76 75/54/77
f 76/55/78 77/56/79 78/57/80
f 79/58/81 80/24/82 81/59/83
f 82/60/84 83/22/85 84/61/86
f 49/31/51 52/34/54 54/36/56 50/32/52
f 55/37/57 51/33/53 50/32/52 56/38/58
f 58/40/60 57/39/59 56/38/58 59/41/61
f 61/43/63 60/42/62 59/41/61 62/44/64
f 64/46/66 63/45/65 62/44/64 65/47/67
f 53/35/55 66/48/68 65/47/67 54/36/56
f 69/28/71 71/27/73 70/51/72 67/62/69
f 71/27/73 74/26/76 73/53/75 72/52/74
f 74/26/76 77/56/79 76/55/78 75/54/77
f 77/56/79 80/24/82 79/58/81 78/57/80
f 80/24/82 83/22/85 82/60/84 81/59/83
f 83/22/85 69/50/71 68/49/70 84/61/86
f 72/52/74 64/63/66 66/64/68 70/51/72
f 52/65/54 68/49/70 67/23/69 53/23/55
f 78/57/80 58/66/60 60/67/62 76/55/78
f 63/53/65 73/53/75 75/54/77 61/68/63
f 51/69/53 82/60/84 84/61/86 49/70/51
f 81/59/83 55/71/57 57/72/59 79/58/81
f 84/61/86 68/49/70 52/65/54 49/70/51
f 54/36/56 65/47/67 62/44/64 59/41/61 56/38/58 50/32/52
f 81/59/83 82/60/84 51/69/53 55/71/57
f 67/62/69 70/51/72 66/64/68 53/73/55
f 78/57/80 79/58/81 57/72/59 58/66/60
f 75/54/77 76/55/78 60/67/62 61/68/63
f 72/52/74 73/53/75 63/53/65 64/63/66
f 13/28/36 14/27/40 71/27/73 69/28/71
f 28/22/35 13/23/36 69/50/71 83/22/85
f 14/27/40 19/26/39 74/26/76 71/27/73
f 19/26/39 22/25/38 77/56/79 74/26/76
f 22/25/38 25/24/37 80/24/82 77/56/79
f 25/24/37 28/22/35 83/22/85 80/24/82
f 48/74/87 45/75/88 85/76/48 86/77/47
f 41/78/89 48/74/87 86/77/47 87/79/44
f 44/80/90 41/78/89 87/79/44 88/81/43
f 37/29/45 44/80/90 88/81/43 89/82/50
f 40/30/46 37/29/45 89/82/50 90/83/49
f 45/75/88 40/30/46 90/83/49 85/76/48
f 96/30/44 91/75/43 92/74/50 93/78/49 94/80/48 95/29/47
f 41/78/89 44/80/90 94/80/48 93/78/49
f 45/75/88 48/74/87 92/74/50 91/75/43
f 40/30/46 45/75/88 91/75/43 96/30/44
f 44/80/90 37/29/45 95/29/47 94/80/48
f 48/74/87 41/78/89 93/78/49 92/74/50
