# Blender 5.1.1
# www.blender.org
mtllib Pé de cabra.mtl
o Pe_de_cabra
v 0.468175 4.779737 -0.186662
v 0.090000 0.968070 -0.110000
v 0.468175 4.779737 0.186661
v 0.090000 0.968070 0.110000
v 0.409824 4.872293 -0.080389
v -0.090000 0.968070 -0.110000
v 0.409824 4.872293 0.080389
v -0.090000 0.968070 0.110000
v -0.205327 0.535316 -0.217093
v -0.205327 0.535316 0.217093
v -0.089853 0.702732 -0.110000
v -0.089853 0.702732 0.110000
v 0.195973 4.736669 -0.082455
v 0.151060 4.875278 0.082454
v 0.195973 4.736669 0.082454
v 0.151060 4.875278 -0.082455
v 0.121891 4.648258 -0.110000
v 0.121891 4.648258 0.110000
v -0.048322 4.706803 -0.110000
v -0.048322 4.706803 0.110000
v 0.090000 4.536229 -0.110000
v 0.090000 4.536229 0.110000
v -0.090000 4.536229 -0.110000
v -0.090000 4.536229 0.110000
v 0.618012 4.755365 0.186661
v 0.950917 4.790597 0.170026
v 0.618012 4.755365 -0.186662
v 0.950917 4.790597 -0.170027
v 0.618012 4.755365 0.000049
v 0.950917 4.790597 0.019993
v 0.950917 4.790597 -0.019998
v 0.618039 4.841056 0.000073
vn 0.0137 0.9999 -0.0004
vn 0.0136 0.9999 -0.0000
vn 0.1493 0.9888 -0.0000
vn -0.2023 0.3330 0.9210
vn 0.0115 0.9999 -0.0000
vn 0.3407 0.0002 -0.9402
vn 0.1563 -0.9877 -0.0000
vn 0.1411 -0.9900 -0.0000
vn -0.2023 0.3330 -0.9210
vn 0.8232 -0.5678 -0.0000
vn 0.8251 -0.5650 -0.0000
vn 0.3407 0.0002 0.9402
vn -0.9663 0.2575 -0.0000
vn 0.8278 -0.5611 -0.0000
vn 0.0984 0.1074 -0.9893
vn 0.7665 -0.6423 -0.0000
vn -0.6454 0.7638 -0.0000
vn 0.0984 0.1074 0.9893
vn -0.0000 -0.0000 1.0000
vn -0.9714 0.2374 -0.0000
vn 0.9618 -0.2738 -0.0000
vn -0.0000 -0.0000 -1.0000
vn 1.0000 -0.0000 -0.0000
vn -1.0000 -0.0000 -0.0000
vn -0.0302 -0.9995 -0.0000
vn 0.1052 -0.9944 -0.0000
vn 0.1041 -0.9946 -0.0000
vn 0.0099 0.6821 -0.7312
vn 0.0099 0.6821 0.7312
vn 0.0598 0.0003 -0.9982
vn 0.0601 -0.0003 0.9982
vt 0.071343 0.000424
vt 0.198548 0.000424
vt 0.269467 0.523671
vt 0.150763 0.523671
vt 0.135003 0.201772
vt 0.119123 0.523671
vt 0.000424 0.523671
vt 0.780185 0.388247
vt 0.785851 0.664023
vt 0.720717 0.586394
vt 0.785851 0.344791
vt 0.879724 0.000424
vt 0.878090 0.250648
vt 0.750885 0.250648
vt 0.749251 0.000424
vt 0.736361 0.141343
vt 0.725165 0.315042
vt 0.725165 0.140764
vt 0.726760 0.000424
vt 0.000424 0.606966
vt 0.263648 0.524519
vt 0.263648 0.819885
vt 0.000424 0.737438
vt 0.659184 0.000424
vt 0.724317 0.242027
vt 0.659184 0.319657
vt 0.664850 0.043880
vt 0.537513 0.000424
vt 0.649401 0.085154
vt 0.649401 0.259213
vt 0.537513 0.343943
vt 0.748404 0.315042
vt 0.737208 0.141343
vt 0.746809 0.000424
vt 0.748404 0.140764
vt 0.423656 0.259213
vt 0.423656 0.085154
vt 0.536666 0.000424
vt 0.536666 0.343943
vt 0.981940 0.930559
vt 0.807880 0.930559
vt 0.807880 0.756281
vt 0.981940 0.756281
vt 0.786698 0.582068
vt 0.786698 0.387908
vt 0.794539 0.344791
vt 0.807033 0.418715
vt 0.423656 0.667560
vt 0.495391 0.689354
vt 0.495391 0.819826
vt 0.423656 0.841620
vt 0.719870 0.667561
vt 0.698076 0.860494
vt 0.567604 0.860494
vt 0.545810 0.667561
vt 0.807033 0.746269
vt 0.794539 0.820193
vt 0.786698 0.777076
vt 0.786698 0.582916
vt 0.815086 0.724596
vt 0.810353 0.755434
vt 0.807880 0.590838
vt 0.815086 0.550536
vt 0.761658 0.838930
vt 0.720717 0.838930
vt 0.720717 0.664871
vt 0.761658 0.664871
vt 0.496238 0.667560
vt 0.527438 0.667560
vt 0.527438 0.841620
vt 0.496238 0.841620
vt 0.807880 0.344791
vt 0.815086 0.385093
vt 0.812613 0.549689
vt 0.807880 0.518850
vt 0.815934 0.344790
vt 0.966680 0.344790
vt 0.966680 0.518850
vt 0.815934 0.518850
vt 0.151169 0.994792
vt 0.000424 0.994792
vt 0.000424 0.820732
vt 0.151169 0.820732
vt 0.815934 0.519698
vt 0.966680 0.519698
vt 0.966680 0.693757
vt 0.815934 0.693757
vt 0.421060 0.999576
vt 0.270314 0.999576
vt 0.270314 0.825517
vt 0.421060 0.825517
vt 0.571378 0.344791
vt 0.558217 0.666713
vt 0.439517 0.666713
vt 0.423656 0.344791
vt 0.270314 0.824669
vt 0.270314 0.529303
vt 0.415209 0.529303
vt 0.415209 0.677025
vt 0.415209 0.824669
vt 0.422808 0.461228
vt 0.346985 0.528455
vt 0.346985 0.000424
vt 0.403377 0.317641
vt 0.270314 0.000424
vt 0.346138 0.067651
vt 0.326707 0.211238
vt 0.270314 0.528456
vt 0.654716 0.000424
vt 0.658336 0.000468
vt 0.654716 0.322733
vt 0.572226 0.666713
vt 0.588005 0.344791
vt 0.706708 0.344790
vt 0.719870 0.666713
vt 0.653868 0.322694
vt 0.650248 0.322737
vt 0.650248 0.000424
s 1
usemtl Material.005
f 5/1/1 7/2/2 26/3/3 30/4/3 32/5/3 31/6/3 28/7/3
f 15/8/4 3/9/4 7/10/4 14/11/4
f 14/12/5 7/13/2 5/14/1 16/15/5
f 6/16/6 2/17/6 11/18/6 9/19/6
f 13/20/7 1/21/8 3/22/8 15/23/7
f 16/24/9 5/25/9 1/26/9 13/27/9
f 9/28/10 11/29/11 12/30/11 10/31/10
f 4/32/12 8/33/12 10/34/12 12/35/12
f 8/36/13 6/37/13 9/38/13 10/39/13
f 2/40/14 4/41/14 12/42/11 11/43/11
f 19/44/15 16/45/15 13/46/15 17/47/15
f 17/48/16 13/49/16 15/50/16 18/51/16
f 20/52/17 14/53/17 16/54/17 19/55/17
f 18/56/18 15/57/18 14/58/18 20/59/18
f 22/60/19 18/61/19 20/62/19 24/63/19
f 24/64/20 20/65/20 19/66/20 23/67/20
f 21/68/21 17/69/21 18/70/21 22/71/21
f 23/72/22 19/73/22 17/74/22 21/75/22
f 6/76/22 23/77/22 21/78/22 2/79/22
f 2/80/23 21/81/23 22/82/23 4/83/23
f 8/84/24 24/85/24 23/86/24 6/87/24
f 4/88/19 22/89/19 24/90/19 8/91/19
f 27/92/25 28/93/26 31/94/26 29/95/27
f 3/96/8 1/97/8 27/98/25 29/99/27 25/100/25
f 1/101/28 5/102/28 28/103/28 27/104/28
f 7/105/29 3/106/29 25/107/29 26/108/29
f 29/109/30 32/110/30 30/111/30
f 29/112/27 30/113/26 26/114/26 25/115/25
f 32/116/31 29/117/31 31/118/31
